<svg width="345" height="112" xmlns="http://www.w3.org/2000/svg" class="iconLeftSlogan">
 <!---->

 <!---->
 <!---->
 <!---->
 <!---->
 <g>
  <title>background</title>
  <rect fill="none" id="canvas_background" height="114" width="347" y="-1" x="-1"/>
 </g>
 <g>
  <title>Layer 1</title>
  <g transform="matrix(5.550416065768061,0,0,5.550416065768061,102.44587815905396,-8.769657437287556) " fill="white" id="3a9cf410-934f-4090-b5e7-7cd092aa69e5">
   <path id="svg_1" d="m4.52,10.93l0,0q0.25,0 0.43,0.2l0,0l0,0q0.17,0.2 0.17,0.5l0,0l0,0q0,0.31 -0.23,0.51l0,0l0,0q-0.23,0.19 -0.59,0.19l0,0l-0.25,0l0,0q-0.69,0 -1.26,-0.35l0,0l0,0q-0.56,-0.36 -0.89,-0.98l0,0l0,0q-0.32,-0.61 -0.32,-1.38l0,0l0,-3.46l-0.64,0l0,0q-0.3,0 -0.48,-0.17l0,0l0,0q-0.18,-0.17 -0.18,-0.42l0,0l0,0q0,-0.28 0.18,-0.45l0,0l0,0q0.18,-0.16 0.48,-0.16l0,0l0.64,0l0,-2.02l0,0q0,-0.31 0.2,-0.5l0,0l0,0q0.19,-0.2 0.5,-0.2l0,0l0,0q0.31,0 0.51,0.2l0,0l0,0q0.19,0.19 0.19,0.5l0,0l0,2.02l1.19,0l0,0q0.3,0 0.48,0.16l0,0l0,0q0.18,0.17 0.18,0.45l0,0l0,0q0,0.25 -0.18,0.42l0,0l0,0q-0.18,0.17 -0.48,0.17l0,0l-1.19,0l0,3.46l0,0q0,0.56 0.31,0.94l0,0l0,0q0.31,0.37 0.76,0.37l0,0l0.47,0zm10.49,-6.25l0,0q0.29,0 0.44,0.15l0,0l0,0q0.15,0.15 0.15,0.42l0,0l0,0q0,0.22 -0.07,0.41l0,0l-2.08,6.21l0,0q-0.07,0.2 -0.25,0.33l0,0l0,0q-0.18,0.13 -0.4,0.13l0,0l0,0q-0.24,0 -0.43,-0.13l0,0l0,0q-0.19,-0.13 -0.25,-0.33l0,0l-1.37,-5.08l-1.44,5.08l0,0q-0.07,0.2 -0.26,0.33l0,0l0,0q-0.19,0.13 -0.41,0.13l0,0l0,0q-0.23,0 -0.42,-0.13l0,0l0,0q-0.18,-0.13 -0.25,-0.33l0,0l-2.08,-6.21l0,0q-0.05,-0.19 -0.05,-0.4l0,0l0,0q0,-0.58 0.59,-0.58l0,0l0,0q0.26,0 0.44,0.15l0,0l0,0q0.17,0.15 0.28,0.49l0,0l1.52,4.72l1.42,-4.83l0,0q0.07,-0.24 0.25,-0.39l0,0l0,0q0.17,-0.14 0.45,-0.14l0,0l0,0q0.27,0 0.44,0.14l0,0l0,0q0.18,0.15 0.25,0.39l0,0l1.26,4.93l1.54,-4.82l0,0q0.2,-0.64 0.73,-0.64l0,0zm2.2,0.71l0,0q0,-0.32 0.2,-0.52l0,0l0,0q0.2,-0.19 0.51,-0.19l0,0l0,0q0.32,0 0.52,0.19l0,0l0,0q0.19,0.2 0.19,0.52l0,0l0,6.23l0,0q0,0.31 -0.19,0.51l0,0l0,0q-0.2,0.2 -0.52,0.2l0,0l0,0q-0.31,0 -0.51,-0.2l0,0l0,0q-0.2,-0.2 -0.2,-0.51l0,0l0,-6.23zm0.71,-3.81l0,0q0.38,0 0.65,0.27l0,0l0,0q0.27,0.28 0.27,0.66l0,0l0,0q0,0.37 -0.27,0.65l0,0l0,0q-0.27,0.27 -0.65,0.27l0,0l0,0q-0.38,0 -0.65,-0.27l0,0l0,0q-0.27,-0.28 -0.27,-0.65l0,0l0,0q0,-0.38 0.27,-0.66l0,0l0,0q0.27,-0.27 0.65,-0.27l0,0zm8.46,9.44l0,0q0.65,0 0.65,0.66l0,0l0,0q0,0.65 -0.65,0.65l0,0l-4.78,0l0,0q-0.66,0 -0.66,-0.65l0,0l0,0q0,-0.28 0.13,-0.45l0,0l3.96,-5.24l-3.57,0l0,0q-0.66,0 -0.66,-0.66l0,0l0,0q0,-0.65 0.66,-0.65l0,0l4.78,0l0,0q0.65,0 0.65,0.65l0,0l0,0q0,0.28 -0.12,0.45l0,0l-3.95,5.24l3.56,0zm5.95,-6.4l0,0q1.07,0 1.95,0.51l0,0l0,0q0.87,0.51 1.38,1.4l0,0l0,0q0.52,0.89 0.52,1.98l0,0l0,3.12l0,0q0,0.31 -0.21,0.51l0,0l0,0q-0.2,0.21 -0.51,0.21l0,0l0,0q-0.31,0 -0.51,-0.21l0,0l0,0q-0.2,-0.2 -0.2,-0.51l0,0l0,-0.51l0,0q-0.49,0.6 -1.19,0.93l0,0l0,0q-0.7,0.34 -1.51,0.34l0,0l0,0q-1.01,0 -1.83,-0.5l0,0l0,0q-0.82,-0.51 -1.29,-1.4l0,0l0,0q-0.47,-0.89 -0.47,-1.98l0,0l0,0q0,-1.09 0.51,-1.98l0,0l0,0q0.5,-0.89 1.39,-1.4l0,0l0,0q0.89,-0.51 1.97,-0.51l0,0zm0,6.51l0,0q0.7,0 1.26,-0.34l0,0l0,0q0.57,-0.35 0.89,-0.94l0,0l0,0q0.32,-0.6 0.32,-1.34l0,0l0,0q0,-0.74 -0.32,-1.34l0,0l0,0q-0.32,-0.6 -0.89,-0.95l0,0l0,0q-0.56,-0.34 -1.26,-0.34l0,0l0,0q-0.7,0 -1.27,0.34l0,0l0,0q-0.57,0.35 -0.9,0.95l0,0l0,0q-0.33,0.6 -0.33,1.34l0,0l0,0q0,0.74 0.33,1.34l0,0l0,0q0.33,0.59 0.9,0.94l0,0l0,0q0.57,0.34 1.27,0.34l0,0zm9.73,-6.54l0,0q0.74,0 1.16,0.23l0,0l0,0q0.42,0.22 0.42,0.56l0,0l0,0q0,0.09 -0.02,0.14l0,0l0,0q-0.12,0.44 -0.56,0.44l0,0l0,0q-0.07,0 -0.21,-0.02l0,0l0,0q-0.56,-0.1 -0.91,-0.1l0,0l0,0q-1,0 -1.62,0.46l0,0l0,0q-0.62,0.46 -0.62,1.25l0,0l0,4.08l0,0q0,0.34 -0.17,0.52l0,0l0,0q-0.18,0.18 -0.53,0.18l0,0l0,0q-0.33,0 -0.51,-0.17l0,0l0,0q-0.19,-0.18 -0.19,-0.53l0,0l0,-6.25l0,0q0,-0.34 0.19,-0.52l0,0l0,0q0.18,-0.18 0.51,-0.18l0,0l0,0q0.7,0 0.7,0.7l0,0l0,0.26l0,0q0.42,-0.49 1.04,-0.77l0,0l0,0q0.62,-0.28 1.32,-0.28l0,0z"/>
  </g>
  <g fill="white" transform="matrix(1.5,0,0,1.5,-6,-3) " id="a8b9bb82-15b4-4df3-b612-6893a26917d6">
   <path id="svg_2" d="m43,2l-22,0a1,1 0 0 0 -1,1l0,6a1,1 0 0 0 0.76,0.97l3.24,0.81l0,0.22a5,5 0 0 0 5,5l0,6l-3,0a1,1 0 0 0 -1,1l0,4a1,1 0 0 0 1,1l12,0a1,1 0 0 0 1,-1l0,-4a1,1 0 0 0 -1,-1l-3,0l0,-6a5,5 0 0 0 5,-5l0,-0.22l3.24,-0.81a1,1 0 0 0 0.76,-0.97l0,-6a1,1 0 0 0 -1,-1zm-19,6.72l-2,-0.5l0,-4.22l2,0l0,4.72zm13,15.28l0,2l-10,0l0,-2l10,0zm-6,-2l0,-6l2,0l0,6l-2,0zm7,-11a3.009,3.009 0 0 1 -3,3l-6,0a3.009,3.009 0 0 1 -3,-3l0,-7l12,0l0,7zm4,-2.78l-2,0.5l0,-4.72l2,0l0,4.22zm-16,21.78l-18,0a3.009,3.009 0 0 0 -3,3l0,10a1,1 0 0 0 1,1l5,0a0.937,0.937 0 0 0 0.37,-0.07l4.89,-1.93l1.48,0l4.89,1.93a0.937,0.937 0 0 0 0.37,0.07l5,0a1,1 0 0 0 1,-1l0,-10a3.009,3.009 0 0 0 -3,-3zm1,12l-3.81,0l-4.89,-1.93a0.937,0.937 0 0 0 -0.37,-0.07l-1.86,0a0.937,0.937 0 0 0 -0.37,0.07l-4.89,1.93l-3.81,0l0,-9a1,1 0 0 1 1,-1l18,0a1,1 0 0 1 1,1l0,9z"/>
   <path id="svg_3" d="m11,40l2,0l0,-2l2,0l0,-2l-2,0l0,-2l-2,0l0,2l-2,0l0,2l2,0l0,2zm12,-4l2,0l0,2l-2,0l0,-2zm-4,0l2,0l0,2l-2,0l0,-2zm37,-6l-18,0a3.009,3.009 0 0 0 -3,3l0,10a1,1 0 0 0 1,1l5,0a0.937,0.937 0 0 0 0.37,-0.07l4.89,-1.93l1.48,0l4.89,1.93a0.937,0.937 0 0 0 0.37,0.07l5,0a1,1 0 0 0 1,-1l0,-10a3.009,3.009 0 0 0 -3,-3zm1,12l-3.81,0l-4.89,-1.93a0.937,0.937 0 0 0 -0.37,-0.07l-1.86,0a0.937,0.937 0 0 0 -0.37,0.07l-4.89,1.93l-3.81,0l0,-9a1,1 0 0 1 1,-1l18,0a1,1 0 0 1 1,1l0,9z"/>
   <path id="svg_4" d="m43,34l-2,0l0,2l-2,0l0,2l2,0l0,2l2,0l0,-2l2,0l0,-2l-2,0l0,-2zm10,2l2,0l0,2l-2,0l0,-2zm-4,0l2,0l0,2l-2,0l0,-2zm-36,16l-8,0a1,1 0 0 0 -1,1l0,8a1,1 0 0 0 1,1l8,0a1,1 0 0 0 1,-1l0,-8a1,1 0 0 0 -1,-1zm-1,8l-6,0l0,-6l6,0l0,6zm17,-8l-8,0a1,1 0 0 0 -1,1l0,8a1,1 0 0 0 1,1l8,0a1,1 0 0 0 1,-1l0,-8a1,1 0 0 0 -1,-1zm-1,8l-6,0l0,-6l6,0l0,6zm31,-8l-8,0a1,1 0 0 0 -1,1l0,8a1,1 0 0 0 1,1l8,0a1,1 0 0 0 1,-1l0,-8a1,1 0 0 0 -1,-1zm-1,8l-6,0l0,-6l6,0l0,6zm-15,-8l-8,0a1,1 0 0 0 -1,1l0,8a1,1 0 0 0 1,1l8,0a1,1 0 0 0 1,-1l0,-8a1,1 0 0 0 -1,-1zm-1,8l-6,0l0,-6l6,0l0,6zm14,-10l0,-3a1,1 0 0 0 -1,-1l-7,0l0,-2l-2,0l0,2l-7,0a1,1 0 0 0 -1,1l0,3l2,0l0,-2l14,0l0,2l2,0zm-30,0l0,-3a1,1 0 0 0 -1,-1l-7,0l0,-2l-2,0l0,2l-7,0a1,1 0 0 0 -1,1l0,3l2,0l0,-2l14,0l0,2l2,0zm21,-28l2,0l0,-2l2,0l0,-2l-2,0l0,-2l-2,0l0,2l-2,0l0,2l2,0l0,2zm8,-14l2,0l0,-2l2,0l0,-2l-2,0l0,-2l-2,0l0,2l-2,0l0,2l2,0l0,2zm-2,5l2,0l0,2l-2,0l0,-2zm4,10l2,0l0,2l-2,0l0,-2zm-42,-1l2,0l0,-2l2,0l0,-2l-2,0l0,-2l-2,0l0,2l-2,0l0,2l2,0l0,2zm-8,-14l2,0l0,-2l2,0l0,-2l-2,0l0,-2l-2,0l0,2l-2,0l0,2l2,0l0,2zm2,5l2,0l0,2l-2,0l0,-2zm-4,10l2,0l0,2l-2,0l0,-2z"/>
  </g>
  <g transform="matrix(2.349001100040486,0,0,2.3945955935865237,100.9186456821095,56.55204286458983) " fill="white" id="1109e5b8-fad9-4171-bb96-e8cfcb7a2955">
   <path id="svg_5" d="m30.52083,3.45897l0,0q-0.2,0 -0.31,0.11l0,0l0,0q-0.11,0.11 -0.11,0.31l0,0l0,6.73l0,0.03l0,0q0.01,1.08 0.53,1.96l0,0l0,0q0.52,0.88 1.41,1.38l0,0l0,0q0.89,0.5 1.97,0.5l0,0l0,0q1.1,0 2,-0.51l0,0l0,0q0.89,-0.51 1.41,-1.41l0,0l0,0q0.51,-0.9 0.51,-2l0,0l0,0q0,-1.09 -0.51,-1.99l0,0l0,0q-0.52,-0.9 -1.41,-1.41l0,0l0,0q-0.9,-0.51 -2,-0.51l0,0l0,0q-1,0 -1.8,0.43l0,0l0,0q-0.81,0.43 -1.27,1.17l0,0l0,-4.37l0,0q0,-0.2 -0.12,-0.31l0,0l0,0q-0.12,-0.11 -0.3,-0.11l0,0zm3.49,10.23l0,0q-0.87,0 -1.57,-0.41l0,0l0,0q-0.7,-0.41 -1.1,-1.13l0,0l0,0q-0.4,-0.71 -0.4,-1.59l0,0l0,0q0,-0.88 0.4,-1.6l0,0l0,0q0.4,-0.71 1.1,-1.12l0,0l0,0q0.7,-0.4 1.57,-0.4l0,0l0,0q0.86,0 1.56,0.4l0,0l0,0q0.7,0.41 1.11,1.12l0,0l0,0q0.41,0.72 0.41,1.6l0,0l0,0q0,0.88 -0.41,1.59l0,0l0,0q-0.41,0.72 -1.11,1.13l0,0l0,0q-0.7,0.41 -1.56,0.41l0,0zm9.19,-7.02l0,0q1.03,0 1.83,0.48l0,0l0,0q0.81,0.48 1.25,1.34l0,0l0,0q0.45,0.85 0.45,1.94l0,0l0,0q0,0.18 -0.11,0.29l0,0l0,0q-0.11,0.1 -0.29,0.1l0,0l-5.87,0l0,0q0.04,0.83 0.43,1.48l0,0l0,0q0.4,0.65 1.05,1.02l0,0l0,0q0.66,0.36 1.47,0.36l0,0l0,0q0.55,0 1.1,-0.19l0,0l0,0q0.56,-0.19 0.88,-0.5l0,0l0,0q0.14,-0.11 0.29,-0.11l0,0l0,0q0.16,0 0.25,0.09l0,0l0,0q0.16,0.12 0.16,0.29l0,0l0,0q0,0.14 -0.13,0.27l0,0l0,0q-0.45,0.4 -1.17,0.67l0,0l0,0q-0.72,0.26 -1.38,0.26l0,0l0,0q-1.1,0 -1.96,-0.49l0,0l0,0q-0.86,-0.5 -1.35,-1.39l0,0l0,0q-0.49,-0.89 -0.49,-2.01l0,0l0,0q0,-1.13 0.45,-2.02l0,0l0,0q0.46,-0.89 1.28,-1.39l0,0l0,0q0.81,-0.49 1.86,-0.49l0,0zm0,0.78l0,0q-1.09,0 -1.84,0.73l0,0l0,0q-0.75,0.73 -0.89,1.92l0,0l5.45,0l0,0q-0.1,-1.19 -0.84,-1.92l0,0l0,0q-0.74,-0.73 -1.88,-0.73l0,0zm9.43,-2.44l0,0q-0.1,0.05 -0.19,0.05l0,0l0,0q-0.18,0 -0.3,-0.12l0,0l0,0q-0.12,-0.12 -0.12,-0.3l0,0l0,0q0,-0.31 0.27,-0.41l0,0l2.14,-0.71l0,0q0.25,-0.07 0.3,-0.07l0,0l0,0q0.18,0 0.3,0.11l0,0l0,0q0.12,0.12 0.12,0.31l0,0l0,10.1l0,0q0,0.19 -0.12,0.3l0,0l0,0q-0.12,0.12 -0.3,0.12l0,0l0,0q-0.19,0 -0.31,-0.12l0,0l0,0q-0.13,-0.11 -0.13,-0.3l0,0l0,-9.5l-1.66,0.54zm7.79,1.64l0,0q1.77,0 2.68,1.26l0,0l0,0q0.08,0.1 0.08,0.24l0,0l0,0q0,0.2 -0.22,0.32l0,0l0,0q-0.14,0.06 -0.21,0.06l0,0l0,0q-0.21,0 -0.35,-0.18l0,0l0,0q-0.72,-0.91 -2,-0.91l0,0l0,0q-0.86,0 -1.36,0.37l0,0l0,0q-0.51,0.37 -0.51,0.91l0,0l0,0q0,0.56 0.49,0.9l0,0l0,0q0.48,0.34 1.61,0.5l0,0l0,0q1.49,0.21 2.14,0.8l0,0l0,0q0.65,0.58 0.65,1.4l0,0l0,0q0,0.65 -0.41,1.14l0,0l0,0q-0.42,0.49 -1.1,0.75l0,0l0,0q-0.69,0.27 -1.5,0.27l0,0l0,0q-0.81,0 -1.58,-0.29l0,0l0,0q-0.77,-0.29 -1.28,-0.87l0,0l0,0q-0.09,-0.12 -0.09,-0.26l0,0l0,0q0,-0.19 0.18,-0.32l0,0l0,0q0.08,-0.07 0.24,-0.07l0,0l0,0q0.19,0 0.32,0.16l0,0l0,0q0.7,0.85 2.25,0.85l0,0l0,0q1.11,0 1.63,-0.39l0,0l0,0q0.53,-0.39 0.53,-1.01l0,0l0,0q0,-1.11 -2.14,-1.41l0,0l0,0q-1.36,-0.2 -2.06,-0.75l0,0l0,0q-0.69,-0.54 -0.69,-1.31l0,0l0,0q0,-1.02 0.75,-1.59l0,0l0,0q0.75,-0.57 1.95,-0.57l0,0zm8.35,6.89l0,0q0.19,0 0.31,0.12l0,0l0,0q0.12,0.12 0.12,0.31l0,0l0,0q0,0.19 -0.12,0.3l0,0l0,0q-0.12,0.12 -0.31,0.12l0,0l-0.32,0l0,0q-0.77,0 -1.38,-0.35l0,0l0,0q-0.6,-0.35 -0.93,-0.95l0,0l0,0q-0.34,-0.61 -0.34,-1.38l0,0l0,-3.94l-1.09,0l0,0q-0.17,0 -0.28,-0.1l0,0l0,0q-0.1,-0.11 -0.1,-0.28l0,0l0,0q0,-0.16 0.1,-0.27l0,0l0,0q0.11,-0.1 0.28,-0.1l0,0l1.09,0l0,-2.29l0,0q0,-0.19 0.12,-0.31l0,0l0,0q0.12,-0.12 0.3,-0.12l0,0l0,0q0.2,0 0.32,0.12l0,0l0,0q0.11,0.12 0.11,0.31l0,0l0,2.29l1.85,0l0,0q0.17,0 0.28,0.1l0,0l0,0q0.1,0.11 0.1,0.27l0,0l0,0q0,0.17 -0.1,0.28l0,0l0,0q-0.11,0.1 -0.28,0.1l0,0l-1.85,0l0,3.94l0,0q0,0.81 0.51,1.32l0,0l0,0q0.5,0.51 1.3,0.51l0,0l0.31,0z"/>
  </g>
 </g>
</svg>